<svg width="41" height="48" viewBox="0 0 41 48" fill="none" xmlns="http://www.w3.org/2000/svg">
<circle cx="20" cy="28" r="19" stroke="#E5E5E5" stroke-width="2"/>
<path d="M19.7398 24.0683H11.7009L13.9307 22.1922C14.188 21.9759 14.3326 21.6824 14.3326 21.3764C14.3327 21.0703 14.1883 20.7768 13.9312 20.5603C13.674 20.3439 13.3252 20.2222 12.9615 20.2222C12.5978 20.2221 12.2489 20.3436 11.9916 20.56L8.7132 23.3184C8.11417 23.8238 7.77777 24.5084 7.77777 25.2222C7.77777 25.9359 8.11417 26.6206 8.7132 27.126L11.9916 29.8844C12.2489 30.1007 12.5978 30.2222 12.9615 30.2222C13.3252 30.2221 13.674 30.1005 13.9312 29.884C14.1883 29.6675 14.3327 29.374 14.3326 29.068C14.3326 28.7619 14.188 28.4685 13.9307 28.2521L11.7009 26.376H19.7398C20.1035 26.376 20.4523 26.2544 20.7094 26.038C20.9666 25.8217 21.1111 25.5282 21.1111 25.2222C21.1111 24.9162 20.9666 24.6227 20.7094 24.4063C20.4523 24.1899 20.1035 24.0683 19.7398 24.0683Z" fill="#E5E5E5"/>
<path d="M19.149 28.94H27.1879L24.9581 26.8555C24.7008 26.6151 24.5562 26.289 24.5561 25.9489C24.5561 25.6089 24.7005 25.2827 24.9576 25.0422C25.2148 24.8017 25.5636 24.6666 25.9273 24.6665C26.291 24.6664 26.6399 24.8014 26.8972 25.0418L30.1756 28.1067C30.7746 28.6683 31.111 29.429 31.111 30.2221C31.111 31.0151 30.7746 31.7758 30.1756 32.3374L26.8972 35.4023C26.6399 35.6427 26.291 35.7777 25.9273 35.7776C25.5636 35.7775 25.2148 35.6424 24.9576 35.4019C24.7005 35.1614 24.5561 34.8352 24.5561 34.4952C24.5562 34.1551 24.7008 33.829 24.9581 33.5887L27.1879 31.5041H19.149C18.7853 31.5041 18.4365 31.369 18.1793 31.1286C17.9222 30.8882 17.7777 30.5621 17.7777 30.2221C17.7777 29.882 17.9222 29.556 18.1793 29.3155C18.4365 29.0751 18.7853 28.94 19.149 28.94Z" fill="#E5E5E5"/>
<circle cx="31" cy="10" r="10" fill="#E5E5E5"/>
<path d="M27.6 9.836C27.6 8.444 27.844 7.372 28.332 6.62C28.828 5.868 29.512 5.492 30.384 5.492C31.256 5.492 31.936 5.868 32.424 6.62C32.92 7.372 33.168 8.444 33.168 9.836C33.168 11.228 32.92 12.3 32.424 13.052C31.936 13.804 31.256 14.18 30.384 14.18C29.512 14.18 28.828 13.804 28.332 13.052C27.844 12.3 27.6 11.228 27.6 9.836ZM31.992 9.836C31.992 9.38 31.964 8.948 31.908 8.54C31.86 8.132 31.772 7.776 31.644 7.472C31.524 7.168 31.36 6.928 31.152 6.752C30.944 6.568 30.688 6.476 30.384 6.476C30.08 6.476 29.824 6.568 29.616 6.752C29.408 6.928 29.24 7.168 29.112 7.472C28.992 7.776 28.904 8.132 28.848 8.54C28.8 8.948 28.776 9.38 28.776 9.836C28.776 10.292 28.8 10.724 28.848 11.132C28.904 11.54 28.992 11.896 29.112 12.2C29.24 12.504 29.408 12.748 29.616 12.932C29.824 13.108 30.08 13.196 30.384 13.196C30.688 13.196 30.944 13.108 31.152 12.932C31.36 12.748 31.524 12.504 31.644 12.2C31.772 11.896 31.86 11.54 31.908 11.132C31.964 10.724 31.992 10.292 31.992 9.836Z" fill="white"/>
</svg>
